<?xml version="1.0" encoding="UTF-8"?>
<svg id="Layer_1" data-name="Layer 1" xmlns="http://www.w3.org/2000/svg" version="1.1" viewBox="0 0 46.8 46.8">
  <defs>
    <style>
      .cls-1 {
        fill: #fff;
        stroke-width: 0px;
      }
    </style>
  </defs>
  <path class="cls-1" d="M40.5,44.5c-3.1-7-8.4-11.3-16.1-11.7-8.6-.4-14.5,4-18,11.7C-2.5,35-2,20.2,7.5,11.4c9.4-8.8,24.2-8.3,33,1.2,8.4,9,8.3,22.9,0,31.9M23.4,12.3c-5,0-9.1,4-9.1,9.1,0,5,4,9.1,9.1,9.1s9.1-4,9.1-9.1c0,0,0,0,0,0,0-5-4.1-9-9.1-9"/>
</svg>