<?xml version="1.0" encoding="UTF-8"?>
<svg id="Layer_1" data-name="Layer 1" xmlns="http://www.w3.org/2000/svg" version="1.1" viewBox="0 0 42 34.7">
  <defs>
    <style>
      .cls-1 {
        fill: #fff;
        stroke-width: 0px;
      }
    </style>
  </defs>
  <g id="Group_6" data-name="Group 6">
    <path id="Path_15" data-name="Path 15" class="cls-1" d="M42.2,28.2c-4,.5-8,1.3-11.9,2.4-2.5.7-4.9,1.7-7,3.2-.4.3-.8.6-1.2.9v-.6c0-8.5,0-17,0-25.5,0-.8.3-1.7.9-2.3,1.2-1.1,2.5-2,4-2.6,3-1.3,6.2-2.2,9.4-2.8,1.9-.4,3.9-.6,5.8-.9v28.2Z"/>
    <path id="Path_16" data-name="Path 16" class="cls-1" d="M.2,28.2V0c.9.1,1.8.2,2.7.4,3.5.5,7,1.4,10.3,2.5,2,.6,3.8,1.5,5.4,2.8.3.2.6.5.8.8.5.6.8,1.3.8,2.1,0,8.5,0,17,0,25.5v.5c0,0-.1,0-.1,0-2.3-1.8-4.9-3.1-7.6-3.9-3.4-1.1-6.9-1.8-10.5-2.3l-1.9-.3"/>
  </g>
</svg>